{
  "accessors": [
    {
      "bufferView": 2,
      "componentType": 5126,
      "count": 1121,
      "max": [
        0.04956100136041641,
        0.058104999363422394,
        0.16943399608135223
      ],
      "min": [
        -0.04956100136041641,
        -0.0893549993634224,
        -0.05004899948835373
      ],
      "type": "VEC3"
    },
    {
      "bufferView": 2,
      "byteOffset": 13452,
      "componentType": 5126,
      "count": 1121,
      "max": [
        0.9991899728775024,
        0.999407172203064,
        0.9997542500495911
      ],
      "min": [
        -0.999193549156189,
        -0.998360812664032,
        -0.9996954798698425
      ],
      "type": "VEC3"
    },
    {
      "bufferView": 1,
      "componentType": 5126,
      "count": 1121,
      "max": [
        1.979491949081421,
        0.9960939884185791
      ],
      "min": [
        0.0087890001013875,
        -0.0009769999887794256
      ],
      "type": "VEC2"
    },
    {
      "bufferView": 0,
      "componentType": 5125,
      "count": 4908,
      "type": "SCALAR"
    },
    {
      "bufferView": 2,
      "byteOffset": 26904,
      "componentType": 5126,
      "count": 332,
      "max": [
        0.031005999073386192,
        0.030029000714421272,
        0.15918000042438507
      ],
      "min": [
        -0.030762000009417534,
        -0.0529789999127388,
        0.013671999797224998
      ],
      "type": "VEC3"
    },
    {
      "bufferView": 2,
      "byteOffset": 30888,
      "componentType": 5126,
      "count": 332,
      "max": [
        0.9945716857910156,
        0.9997815489768982,
        0.7938904762268066
      ],
      "min": [
        -0.9990559816360474,
        -0.668192446231842,
        -0.12539426982402802
      ],
      "type": "VEC3"
    },
    {
      "bufferView": 1,
      "byteOffset": 8968,
      "componentType": 5126,
      "count": 332,
      "max": [
        3.708008050918579,
        1.9716800451278687
      ],
      "min": [
        -1.9716800451278687,
        -0.9912109971046448
      ],
      "type": "VEC2"
    },
    {
      "bufferView": 0,
      "byteOffset": 19632,
      "componentType": 5125,
      "count": 804,
      "type": "SCALAR"
    }
  ],
  "asset": {
    "extras": {
      "author": "SMF Features Developed From Cheryl Hill (https://sketchfab.com/cherylhill28)",
      "license": "CC-BY-4.0 (http://creativecommons.org/licenses/by/4.0/)",
      "source": "https://sketchfab.com/3d-models/ratatouille-remy-2692db09655d49379ab34d4d2185cd3c",
      "title": "Ratatouille - Remy"
    },
    "generator": "Sketchfab-16.67.0",
    "version": "2.0"
  },
  "bufferViews": [
    {
      "buffer": 0,
      "byteLength": 22848,
      "name": "floatBufferViews",
      "target": 34963
    },
    {
      "buffer": 0,
      "byteLength": 11624,
      "byteOffset": 22848,
      "byteStride": 8,
      "name": "floatBufferViews",
      "target": 34962
    },
    {
      "buffer": 0,
      "byteLength": 34872,
      "byteOffset": 34472,
      "byteStride": 12,
      "name": "floatBufferViews",
      "target": 34962
    }
  ],
  "buffers": [
    {
      "byteLength": 69344,
      "uri": "scene.bin"
    }
  ],
  "images": [
    {
      "uri": "textures/Body_baseColor.png"
    },
    {
      "uri": "textures/Hair_baseColor.png"
    }
  ],
  "materials": [
    {
      "doubleSided": true,
      "name": "Body",
      "pbrMetallicRoughness": {
        "baseColorTexture": {
          "index": 0
        },
        "metallicFactor": 0.0
      }
    },
    {
      "alphaMode": "BLEND",
      "doubleSided": true,
      "name": "Hair",
      "pbrMetallicRoughness": {
        "baseColorTexture": {
          "index": 1
        },
        "metallicFactor": 0.0
      }
    }
  ],
  "meshes": [
    {
      "name": "Object_0",
      "primitives": [
        {
          "attributes": {
            "NORMAL": 1,
            "POSITION": 0,
            "TEXCOORD_0": 2
          },
          "indices": 3,
          "material": 0,
          "mode": 4
        }
      ]
    },
    {
      "name": "Object_1",
      "primitives": [
        {
          "attributes": {
            "NORMAL": 5,
            "POSITION": 4,
            "TEXCOORD_0": 6
          },
          "indices": 7,
          "material": 1,
          "mode": 4
        }
      ]
    }
  ],
  "nodes": [
    {
      "children": [
        1
      ],
      "matrix": [
        1.0,
        0.0,
        0.0,
        0.0,
        0.0,
        2.220446049250313e-16,
        -1.0,
        0.0,
        0.0,
        1.0,
        2.220446049250313e-16,
        0.0,
        0.0,
        0.0,
        0.0,
        1.0
      ],
      "name": "Sketchfab_model"
    },
    {
      "children": [
        2,
        3
      ],
      "name": "Remy.obj.cleaner.materialmerger.gles"
    },
    {
      "mesh": 0,
      "name": "Object_2"
    },
    {
      "mesh": 1,
      "name": "Object_3"
    }
  ],
  "samplers": [
    {
      "magFilter": 9729,
      "minFilter": 9987,
      "wrapS": 10497,
      "wrapT": 10497
    }
  ],
  "scene": 0,
  "scenes": [
    {
      "name": "Sketchfab_Scene",
      "nodes": [
        0
      ]
    }
  ],
  "textures": [
    {
      "sampler": 0,
      "source": 0
    },
    {
      "sampler": 0,
      "source": 1
    }
  ]
}
